<svg width="403" height="194" viewBox="0 0 403 194" fill="none" xmlns="http://www.w3.org/2000/svg">
    <path fill-rule="evenodd" clip-rule="evenodd" d="M243.18 92.5H314.42C325.52 92.5 337.25 93.18 347.75 97.11C352.783 98.9467 357.4 101.768 361.33 105.41C365.506 109.336 368.741 114.157 370.79 119.51C372.289 123.414 373.245 127.506 373.63 131.67C374.95 145.15 371.63 158.21 361.2 167.38C354.98 172.83 347.11 176.11 338.65 177.93C327.58 180.3 315.48 180.22 305.05 180.22L179.62 180.28C182.374 177.543 184.893 174.579 187.15 171.42C193.57 162.44 199.977 153.457 206.37 144.47H319.7C323.2 144.47 326.32 144.03 328.7 142.77C329.829 142.239 330.802 141.425 331.524 140.407C332.246 139.389 332.692 138.201 332.82 136.96C333.06 134.68 332.34 132.25 329.08 130.21C326.41 128.54 322.9 128.3 319.8 128.3H250.79C243.05 128.3 233.72 128.3 226.24 126.75C224.149 126.342 222.091 125.784 220.08 125.08C225.21 117.84 233.17 106.6 243.14 92.5H243.18ZM99.84 154.82C100.84 156.4 100.44 155.72 100.59 155.94C100.9 156.42 101.2 156.88 101.68 157.6L102.68 159.07L105.27 162.97L105.37 163.12L111.79 172.62C113.055 174.503 114.435 176.306 115.92 178.02C117.513 179.832 119.237 181.523 121.08 183.08C123.855 185.466 126.927 187.482 130.22 189.08C133.517 190.691 137.052 191.759 140.69 192.24C144.059 192.747 147.463 192.981 150.87 192.94C154.595 192.809 158.29 192.218 161.87 191.18C163.633 190.697 165.352 190.068 167.01 189.3C169.382 191.66 172.594 192.984 175.94 192.98L305 192.92H306.15C317.01 192.92 329.41 192.92 341.24 190.37C346.3 189.322 351.232 187.729 355.95 185.62C360.873 183.415 365.443 180.494 369.51 176.95C375.914 171.383 380.742 164.231 383.51 156.21C386.271 147.942 387.206 139.174 386.25 130.51C385.998 127.818 385.57 125.146 384.97 122.51C384.367 119.933 383.579 117.403 382.61 114.94C381.237 111.384 379.476 107.99 377.36 104.82C375.262 101.673 372.809 98.7775 370.05 96.19C367.496 93.7953 364.701 91.6707 361.71 89.85C358.85 88.1065 355.838 86.627 352.71 85.43C353.024 85.1129 353.322 84.7791 353.6 84.43V84.43L381.5 48.3C382.972 46.3895 383.869 44.0987 384.085 41.6964C384.302 39.2942 383.828 36.8801 382.721 34.7374C381.613 32.5947 379.917 30.8124 377.832 29.5996C375.748 28.3867 373.36 27.7937 370.95 27.89H250.22C246.78 27.89 242.88 27.97 239.39 28.17C236.3 28.35 233.15 28.64 230.25 29.09C221.773 30.3462 213.649 33.346 206.39 37.9C199.082 42.5727 192.724 48.585 187.65 55.62C186.72 56.88 186.04 57.83 185.48 58.62C182.48 63.01 179.83 66.62 176.37 71.53C176.17 71.8 175.97 72.05 175.5 72.77L157.02 98.9C156.87 99.11 156.74 99.31 156.61 99.52L150.06 109.01C142.64 97.78 135.5 86.61 128.41 75.51L83.15 6.51002H3.96L99.84 154.82ZM371.4 40.53H250.15C244.133 40.4774 238.119 40.8316 232.15 41.59C218.15 43.76 206.81 50.98 197.86 63.09C196.53 64.89 195.43 66.53 194.16 68.43C193.52 69.38 193.06 69.95 192.4 70.83L186.79 78.82C186.44 79.32 186.28 79.46 185.91 80.03L167.42 106.18L149.95 131.51C133.48 107.51 117.58 81.72 101.71 57.34L56.4 57.27H50.79L110.45 147.87C111.14 148.92 111.54 149.57 112.24 150.61C113.52 152.53 114.64 154.19 115.86 156.03L122.29 165.42C124.206 168.425 126.566 171.123 129.29 173.42C132.88 176.51 137.56 179.08 142.29 179.68C148.8 180.51 152.35 180.68 158.59 178.97C160.418 178.414 162.165 177.625 163.79 176.62C164.197 175.279 164.819 174.013 165.63 172.87V172.87L191.32 137.05C192.305 135.673 193.555 134.506 194.998 133.62C196.441 132.734 198.046 132.146 199.72 131.89C201.2 129.82 202.67 127.74 204.15 125.66C203.825 123.951 203.855 122.194 204.239 120.498C204.623 118.802 205.351 117.202 206.38 115.8L206.49 115.66C224.89 89.73 204.71 118.23 215.92 102.4C236.35 73.57 198.69 126.7 225.51 88.79C225.63 88.62 225.75 88.45 225.88 88.29C226.57 87.35 226.93 86.84 227.26 86.38C227.94 85.38 228.53 84.59 228.99 83.99C230 82.6655 231.26 81.5528 232.7 80.7155C234.139 79.8781 235.73 79.3326 237.38 79.11C239.38 77 241.49 76.73 248.29 76.73L343.5 76.64L371.4 40.53Z" fill="black"/>
    <path fill-rule="evenodd" clip-rule="evenodd" d="M331.53 126.54C328.86 124.87 325.34 124.62 322.25 124.62H253.25C245.52 124.62 236.18 124.62 228.71 123.07C226.3 122.59 221.6 121.52 219.04 119.65C225.473 110.59 231.897 101.52 238.31 92.44C239.69 90.58 240.65 89.14 241.5 88.03C242.986 88.5628 244.552 88.8367 246.13 88.84H316.89C327.99 88.84 339.72 89.52 350.21 93.45C355.247 95.2842 359.868 98.1061 363.8 101.75C367.964 105.677 371.188 110.493 373.23 115.84C374.725 119.745 375.68 123.836 376.07 128C377.38 141.48 374.07 154.54 363.64 163.71C357.42 169.16 349.55 172.44 341.09 174.26C330.02 176.63 317.92 176.54 307.49 176.55L178.43 176.62L204.11 140.8H322.17C325.67 140.8 328.78 140.36 331.17 139.1C332.296 138.565 333.267 137.75 333.988 136.732C334.709 135.715 335.158 134.53 335.29 133.29C335.51 131.01 334.79 128.62 331.53 126.54Z" fill="#6C6A67"/>
    <path fill-rule="evenodd" clip-rule="evenodd" d="M245.65 88.83H316.89C327.99 88.83 339.72 89.51 350.21 93.44C355.247 95.2743 359.868 98.0961 363.8 101.74C367.964 105.667 371.188 110.483 373.23 115.83C374.725 119.735 375.68 123.826 376.07 127.99C377.38 141.47 374.07 154.53 363.64 163.7C357.42 169.15 349.55 172.43 341.09 174.25C330.01 176.62 317.92 176.53 307.49 176.54L182.05 176.62C184.809 173.888 187.329 170.924 189.58 167.76C196 158.78 202.41 149.797 208.81 140.81H322.17C325.67 140.81 328.78 140.37 331.17 139.11C332.297 138.577 333.267 137.762 333.987 136.744C334.707 135.726 335.152 134.54 335.28 133.3C335.53 131.02 334.8 128.59 331.55 126.55C328.88 124.88 325.36 124.63 322.27 124.63H253.27C245.54 124.63 236.2 124.63 228.73 123.08C226.638 122.682 224.579 122.127 222.57 121.42L245.63 88.84L245.65 88.83ZM0.290001 0.620003L102.29 151.12L103.03 152.25C103.34 152.73 103.64 153.19 104.12 153.91L105.12 155.38L107.7 159.28L107.81 159.43L114.25 168.82C115.513 170.707 116.892 172.514 118.38 174.23C119.969 176.042 121.69 177.733 123.53 179.29C126.308 181.672 129.38 183.688 132.67 185.29C135.966 186.906 139.502 187.977 143.14 188.46C146.513 188.962 149.92 189.196 153.33 189.16C157.055 189.03 160.75 188.439 164.33 187.4C166.096 186.917 167.818 186.288 169.48 185.52C171.852 187.88 175.064 189.204 178.41 189.2L307.47 189.14H308.62C319.47 189.14 331.88 189.14 343.7 186.6C348.757 185.552 353.686 183.959 358.4 181.85C363.322 179.643 367.891 176.721 371.96 173.18C378.366 167.612 383.195 160.455 385.96 152.43C388.72 144.166 389.655 135.401 388.7 126.74C388.449 124.048 388.021 121.376 387.42 118.74C386.813 116.164 386.024 113.635 385.06 111.17C383.671 107.646 381.904 104.283 379.79 101.14C377.69 97.9972 375.241 95.1022 372.49 92.51C369.935 90.1185 367.141 87.9972 364.15 86.18C361.276 84.4317 358.246 82.9522 355.1 81.76C355.414 81.443 355.712 81.1091 355.99 80.76V80.76L383.9 44.62C385.373 42.7089 386.27 40.4171 386.486 38.0139C386.702 35.6106 386.227 33.1957 385.119 31.0526C384.01 28.9096 382.313 27.1274 380.226 25.9153C378.14 24.7033 375.751 24.1117 373.34 24.21H252.62C249.18 24.21 245.28 24.29 241.79 24.49C238.7 24.67 235.55 24.96 232.65 25.41C224.171 26.6754 216.047 29.6854 208.79 34.25C201.511 38.9091 195.176 44.9007 190.12 51.91C189.19 53.16 188.51 54.12 187.94 54.91C184.94 59.3 182.29 62.91 178.84 67.82C178.64 68.08 178.44 68.34 177.96 69.06L159.48 95.19C159.34 95.39 159.2 95.6 159.07 95.81L152.53 105.3C145.1 94.07 137.97 82.9 130.88 71.8L84.18 0.620003H0.290001ZM373.86 36.84H252.62C246.603 36.7821 240.589 37.1363 234.62 37.9C220.62 40.07 209.28 47.28 200.33 59.39C199 61.2 197.9 62.84 196.63 64.74C195.99 65.69 195.53 66.26 194.86 67.14L189.25 75.09C188.9 75.59 188.74 75.73 188.37 76.3L169.87 102.45L152.41 127.78C135.93 103.78 120.04 77.99 104.17 53.61L58.79 53.62H53.19L112.85 144.23C113.54 145.28 113.94 145.93 114.63 146.96C115.92 148.89 117.04 150.55 118.25 152.38L124.69 161.78C126.618 164.791 128.995 167.489 131.74 169.78C135.33 172.87 140.01 175.44 144.69 176.04C151.2 176.87 154.74 177.04 160.99 175.32C162.835 174.797 164.604 174.034 166.25 173.05C166.65 171.706 167.272 170.439 168.09 169.3V169.3L193.79 133.4C194.775 132.021 196.027 130.853 197.472 129.967C198.916 129.081 200.524 128.493 202.2 128.24L206.63 122.01C206.305 120.301 206.335 118.544 206.719 116.848C207.103 115.152 207.831 113.552 208.86 112.15L208.97 112C227.36 86.08 207.19 114.58 218.4 98.75C238.83 69.91 201.17 123.05 227.98 85.14C228.11 84.97 228.23 84.8 228.36 84.64C229.04 83.7 229.41 83.19 229.73 82.73C230.42 81.73 231.01 80.94 231.47 80.34C232.477 79.0127 233.737 77.898 235.177 77.0604C236.617 76.2228 238.209 75.6789 239.86 75.46C241.86 73.35 243.96 73.08 250.76 73.08L345.98 72.99L373.86 36.84Z" fill="white"/>
    <path fill-rule="evenodd" clip-rule="evenodd" d="M373.86 36.86H252.62C246.603 36.8021 240.589 37.1563 234.62 37.92C220.62 40.09 209.28 47.3 200.33 59.41C199 61.22 197.9 62.86 196.63 64.76C195.99 65.71 195.53 66.28 194.86 67.16L189.25 75.11C188.9 75.61 188.74 75.75 188.37 76.32L169.87 102.47L152.41 127.8C135.93 103.8 120.04 78.01 104.17 53.63L58.79 53.62H53.19L112.85 144.23C113.54 145.28 113.94 145.93 114.63 146.96C115.92 148.89 117.04 150.55 118.25 152.38L124.69 161.78C126.618 164.791 128.995 167.489 131.74 169.78C135.33 172.87 140.01 175.44 144.69 176.04C151.2 176.87 154.74 177.04 160.99 175.32C168.33 173.32 174.92 166.46 179.21 160.46C198.07 134.1 216.843 107.69 235.53 81.23C241.01 73.8 240.04 73.15 250.71 73.14L345.93 73.05L373.82 36.92L373.86 36.86ZM46.96 44.21L40.27 34.1H91.86L95.86 40.51L96.26 41.15L98.09 44.15L46.96 44.21ZM87.34 27.87L81.43 19.17H30.43L33.76 24.11L36.11 27.91L87.34 27.87ZM79.43 15.21L73.52 6.51002H22.52L25.85 11.44L28.2 15.24L79.43 15.21Z" fill="#FCA03B"/>
    <path fill-rule="evenodd" clip-rule="evenodd" d="M87.26 6.51002L152.64 99.92L185.05 54.2C188.396 49.8125 191.982 45.6128 195.79 41.62C202.73 34.5059 211.178 29.0385 220.51 25.62C230.51 22.09 242.03 21.8 252.57 21.8H402.79L355.79 80.8L397.28 24.21L284.98 24.15H252.62C249.18 24.15 245.28 24.23 241.79 24.43C238.7 24.61 235.55 24.9 232.65 25.35C224.166 26.6338 216.042 29.6643 208.79 34.25C201.511 38.9091 195.176 44.9007 190.12 51.91C189.19 53.16 188.51 54.12 187.94 54.91C184.94 59.3 182.29 62.91 178.84 67.82C178.64 68.08 178.44 68.34 177.96 69.06L159.48 95.19C159.34 95.39 159.2 95.6 159.07 95.81L152.53 105.3C140.67 87.42 99.33 24.28 87.26 6.51002Z" fill="black"/>
    <path fill-rule="evenodd" clip-rule="evenodd" d="M356.4 86.3C381.4 96.4 393.07 117.65 390.4 142.87C390.075 147.202 389.246 151.48 387.93 155.62C386.564 159.753 384.665 163.689 382.28 167.33C380.657 169.779 378.831 172.087 376.82 174.23C368.18 183.37 356.19 188.35 344.01 190.97C338.004 192.186 331.912 192.925 325.79 193.18C319.85 193.5 314.9 193.5 309.43 193.5H308.28L176.52 193.67L172.84 193.57L175.44 189.93H182.7L308.46 189.87H309.61C314.99 189.87 319.67 189.87 325.61 189.55C331.892 189.281 338.146 188.549 344.32 187.36C346.82 186.82 349.32 186.18 351.66 185.41C354.044 184.654 356.381 183.759 358.66 182.73C361.023 181.657 363.309 180.421 365.5 179.03C367.71 177.633 369.809 176.068 371.78 174.35C377.942 168.98 382.581 162.082 385.23 154.35C386.561 150.498 387.444 146.505 387.86 142.45C388.298 138.128 388.298 133.772 387.86 129.45C387.73 128.06 387.56 126.72 387.35 125.45C387.14 124.18 386.91 122.97 386.62 121.75C386.33 120.53 386.01 119.32 385.62 118.11C385.23 116.9 384.8 115.63 384.33 114.42C383.659 112.693 382.895 111.004 382.04 109.36C380.362 106.108 378.319 103.059 375.95 100.27C374.785 98.8848 373.539 97.5692 372.22 96.33C370.996 95.1819 369.715 94.0972 368.38 93.08C367.07 92.08 365.67 91.13 364.18 90.22C362.754 89.3499 361.286 88.5522 359.78 87.83C358.67 87.29 357.54 86.83 356.37 86.32L356.4 86.3Z" fill="#231300"/>
</svg>
